HIERARCHY
ROOT hip
{
OFFSET -0.10 95.05 0.06
CHANNELS 6 Xposition Yposition Zposition Zrotation Xrotation Yrotation
JOINT abdomen
{
OFFSET 0 7.23 0
CHANNELS 6 Xposition Yposition Zposition Zrotation Xrotation Yrotation
JOINT chest
{
OFFSET 0 16.54 -0
CHANNELS 6 Xposition Yposition Zposition Zrotation Xrotation Yrotation
JOINT neck
{
OFFSET 0 34.21 -0
CHANNELS 6 Xposition Yposition Zposition Zrotation Xrotation Yrotation
JOINT head
{
OFFSET 0 6.29 0
CHANNELS 6 Xposition Yposition Zposition Zrotation Xrotation Yrotation
End Site
{
OFFSET 0 0 0
}
}
}
JOINT lCollar
{
OFFSET 4.06 26.61 -1.12
CHANNELS 6 Xposition Yposition Zposition Zrotation Xrotation Yrotation
JOINT lShldr
{
OFFSET 14.17 0 0
CHANNELS 6 Xposition Yposition Zposition Zrotation Xrotation Yrotation
JOINT lForeArm
{
OFFSET 26.12 0 0
CHANNELS 6 Xposition Yposition Zposition Zrotation Xrotation Yrotation
JOINT lHand
{
OFFSET 27.71 0 0
CHANNELS 6 Xposition Yposition Zposition Zrotation Xrotation Yrotation
JOINT lThumb1
{
OFFSET 2.29 -0.46 1.83
CHANNELS 6 Xposition Yposition Zposition Zrotation Xrotation Yrotation
JOINT lThumb2
{
OFFSET 5.29 0 0
CHANNELS 6 Xposition Yposition Zposition Zrotation Xrotation Yrotation
JOINT lThumb3
{
OFFSET 3.01 0 0
CHANNELS 6 Xposition Yposition Zposition Zrotation Xrotation Yrotation
End Site
{
OFFSET 0 0 0
}
}
}
}
JOINT lIndex1
{
OFFSET 9.37 0.29 2.59
CHANNELS 6 Xposition Yposition Zposition Zrotation Xrotation Yrotation
JOINT lIndex2
{
OFFSET 4.34 0 0
CHANNELS 6 Xposition Yposition Zposition Zrotation Xrotation Yrotation
JOINT lIndex3
{
OFFSET 2.16 0 0
CHANNELS 6 Xposition Yposition Zposition Zrotation Xrotation Yrotation
End Site
{
OFFSET 0 0 0
}
}
}
}
JOINT lMid1
{
OFFSET 9.47 0.83 0.29
CHANNELS 6 Xposition Yposition Zposition Zrotation Xrotation Yrotation
JOINT lMid2
{
OFFSET 4.77 0 0
CHANNELS 6 Xposition Yposition Zposition Zrotation Xrotation Yrotation
JOINT lMid3
{
OFFSET 2.87 0 0
CHANNELS 6 Xposition Yposition Zposition Zrotation Xrotation Yrotation
End Site
{
OFFSET 0 0 0
}
}
}
}
JOINT lRing1
{
OFFSET 8.65 1.01 -1.70
CHANNELS 6 Xposition Yposition Zposition Zrotation Xrotation Yrotation
JOINT lRing2
{
OFFSET 4.54 0 0
CHANNELS 6 Xposition Yposition Zposition Zrotation Xrotation Yrotation
JOINT lRing3
{
OFFSET 2.50 0 0
CHANNELS 6 Xposition Yposition Zposition Zrotation Xrotation Yrotation
End Site
{
OFFSET 0 0 0
}
}
}
}
JOINT lPinky1
{
OFFSET 7.69 0.66 -3.90
CHANNELS 6 Xposition Yposition Zposition Zrotation Xrotation Yrotation
JOINT lPinky2
{
OFFSET 3.21 0 0
CHANNELS 6 Xposition Yposition Zposition Zrotation Xrotation Yrotation
JOINT lPinky3
{
OFFSET 1.92 0 0
CHANNELS 6 Xposition Yposition Zposition Zrotation Xrotation Yrotation
End Site
{
OFFSET 0 0 0
}
}
}
}
}
}
}
}
JOINT rCollar
{
OFFSET -4.06 26.61 -1.12
CHANNELS 6 Xposition Yposition Zposition Zrotation Xrotation Yrotation
JOINT rShldr
{
OFFSET -14.17 0 0
CHANNELS 6 Xposition Yposition Zposition Zrotation Xrotation Yrotation
JOINT rForeArm
{
OFFSET -26.12 0 0
CHANNELS 6 Xposition Yposition Zposition Zrotation Xrotation Yrotation
JOINT rHand
{
OFFSET -27.71 0 0
CHANNELS 6 Xposition Yposition Zposition Zrotation Xrotation Yrotation
JOINT rThumb1
{
OFFSET -2.29 -0.46 1.83
CHANNELS 6 Xposition Yposition Zposition Zrotation Xrotation Yrotation
JOINT rThumb2
{
OFFSET -5.29 0 0
CHANNELS 6 Xposition Yposition Zposition Zrotation Xrotation Yrotation
JOINT rThumb3
{
OFFSET -3.01 0 0
CHANNELS 6 Xposition Yposition Zposition Zrotation Xrotation Yrotation
End Site
{
OFFSET 0 0 0
}
}
}
}
JOINT rIndex1
{
OFFSET -9.37 0.29 2.59
CHANNELS 6 Xposition Yposition Zposition Zrotation Xrotation Yrotation
JOINT rIndex2
{
OFFSET -4.34 0 0
CHANNELS 6 Xposition Yposition Zposition Zrotation Xrotation Yrotation
JOINT rIndex3
{
OFFSET -2.16 0 0
CHANNELS 6 Xposition Yposition Zposition Zrotation Xrotation Yrotation
End Site
{
OFFSET 0 0 0
}
}
}
}
JOINT rMid1
{
OFFSET -9.47 0.83 0.29
CHANNELS 6 Xposition Yposition Zposition Zrotation Xrotation Yrotation
JOINT rMid2
{
OFFSET -4.77 0 0
CHANNELS 6 Xposition Yposition Zposition Zrotation Xrotation Yrotation
JOINT rMid3
{
OFFSET -2.87 0 0
CHANNELS 6 Xposition Yposition Zposition Zrotation Xrotation Yrotation
End Site
{
OFFSET 0 0 0
}
}
}
}
JOINT rRing1
{
OFFSET -8.65 1.01 -1.70
CHANNELS 6 Xposition Yposition Zposition Zrotation Xrotation Yrotation
JOINT rRing2
{
OFFSET -4.54 0 0
CHANNELS 6 Xposition Yposition Zposition Zrotation Xrotation Yrotation
JOINT rRing3
{
OFFSET -2.50 0 0
CHANNELS 6 Xposition Yposition Zposition Zrotation Xrotation Yrotation
End Site
{
OFFSET 0 0 0
}
}
}
}
JOINT rPinky1
{
OFFSET -7.69 0.66 -3.90
CHANNELS 6 Xposition Yposition Zposition Zrotation Xrotation Yrotation
JOINT rPinky2
{
OFFSET -3.21 0 0
CHANNELS 6 Xposition Yposition Zposition Zrotation Xrotation Yrotation
JOINT rPinky3
{
OFFSET -1.92 0 0
CHANNELS 6 Xposition Yposition Zposition Zrotation Xrotation Yrotation
End Site
{
OFFSET 0 0 0
}
}
}
}
}
}
}
}
}
}
JOINT lThigh
{
OFFSET 8.73 -0 0
CHANNELS 6 Xposition Yposition Zposition Zrotation Xrotation Yrotation
JOINT lShin
{
OFFSET 0 -46.66 0
CHANNELS 6 Xposition Yposition Zposition Zrotation Xrotation Yrotation
JOINT lFoot
{
OFFSET 0 -40.14 0
CHANNELS 6 Xposition Yposition Zposition Zrotation Xrotation Yrotation
JOINT lToes
{
OFFSET 0 -8.88 14.22
CHANNELS 6 Xposition Yposition Zposition Zrotation Xrotation Yrotation
End Site
{
OFFSET 0 0 0
}
}
}
}
}
JOINT rThigh
{
OFFSET -8.73 0 -0
CHANNELS 6 Xposition Yposition Zposition Zrotation Xrotation Yrotation
JOINT rShin
{
OFFSET 0 -46.66 0
CHANNELS 6 Xposition Yposition Zposition Zrotation Xrotation Yrotation
JOINT rFoot
{
OFFSET 0 -40.14 0
CHANNELS 6 Xposition Yposition Zposition Zrotation Xrotation Yrotation
JOINT rToes
{
OFFSET 0 -8.88 14.22
CHANNELS 6 Xposition Yposition Zposition Zrotation Xrotation Yrotation
End Site
{
OFFSET 0 0 0
}
}
}
}
}
}
MOTION
Frames: 4
Frame Time: 0.03
-0.10 95.05 0.06 -1.80 1.09 -36.36 0 7.23 0 4.90 -1.82 -0.41 0 16.54 -0 -1.09 2.22 -2.61 0 34.21 -0 -0.59 21.12 1.14 0 6.29 0 -3.72 -17.65 44.26 4.06 26.61 -1.12 -6.65 -5.30 6.08 14.17 0 0 -68.64 39.18 -2.62 26.12 0 0 -0 0 -79.26 27.71 0 0 -22.84 -5.07 -10.75 2.29 -0.46 1.83 60.55 59.81 -94.87 5.29 0 0 -31.62 1.78 13.52 3.01 0 0 -9.29 4.86 11.98 9.37 0.29 2.59 -14.84 3.00 -1.79 4.34 0 0 -17.05 2.95 12.80 2.16 0 0 -39.58 -1.85 3.38 9.47 0.83 0.29 -17.70 -19.65 -0.82 4.77 0 0 -25.26 1.27 15.79 2.87 0 0 -42.85 -5.38 11.90 8.65 1.01 -1.70 -25.51 -10.38 2.28 4.54 0 0 -23.47 0.26 7.66 2.50 0 0 -24.24 -1.28 4.61 7.69 0.66 -3.90 -12.73 -8.19 -2.12 3.21 0 0 -51.14 -7.95 12.29 1.92 0 0 -72.20 -16.64 20.97 -4.06 26.61 -1.12 7.16 -5.24 -5.16 -14.17 0 0 47.50 4.91 45.12 -26.12 0 0 0 0 109.22 -27.71 0 0 -26.68 8.61 -5.95 -2.29 -0.46 1.83 -58.05 34.86 97.98 -5.29 0 0 3.13 -12.29 -11.73 -3.01 0 0 49.17 21.55 -13.56 -9.37 0.29 2.59 44.26 -16.28 -19.27 -4.34 0 0 39.43 1.04 -17.18 -2.16 0 0 32.42 -1.98 -6.38 -9.47 0.83 0.29 71.81 -24.27 -17.64 -4.77 0 0 87.27 -15.40 -16.24 -2.87 0 0 44.78 -4.46 -12.79 -8.65 1.01 -1.70 72.40 -20.74 -15.78 -4.54 0 0 80.31 -7.53 -8.92 -2.50 0 0 47.93 -2.94 -7.77 -7.69 0.66 -3.90 85.69 -30.71 -4.49 -3.21 0 0 73.39 -11.48 -8.29 -1.92 0 0 39.93 -4.93 -15.33 8.73 -0 0 11.46 0.81 39.81 0 -46.66 0 0 21.28 0 0 -40.14 0 -11.77 -15.11 13.62 0 -8.88 14.22 0 0 0 -8.73 0 -0 -3.13 -9.85 -11.77 0 -46.66 0 0 19.12 0 0 -40.14 0 1.29 -9.16 -0.23 0 -8.88 14.22 0 0 0 
-0.12 95.08 0.07 -1.77 1.09 -36.35 0 7.23 0 4.89 -1.84 -0.42 0 16.54 -0 -1.08 2.14 -2.65 0 34.21 -0 -0.59 21.16 1.15 0 6.29 0 -3.82 -17.60 44.33 4.06 26.61 -1.12 -6.47 -5.29 6.19 14.17 0 0 -68.44 39.20 -2.97 26.12 0 0 -0 0 -79.27 27.71 0 0 -22.72 -5.39 -10.82 2.29 -0.46 1.83 60.55 59.81 -94.87 5.29 0 0 -31.62 1.78 13.52 3.01 0 0 -9.29 4.86 11.98 9.37 0.29 2.59 -14.84 3.00 -1.79 4.34 0 0 -17.05 2.95 12.80 2.16 0 0 -39.58 -1.85 3.38 9.47 0.83 0.29 -17.70 -19.24 -0.74 4.77 0 0 -25.26 1.27 15.79 2.87 0 0 -42.85 -5.38 11.90 8.65 1.01 -1.70 -25.51 -10.38 2.28 4.54 0 0 -23.47 0.26 7.66 2.50 0 0 -24.24 -1.28 4.61 7.69 0.66 -3.90 -12.73 -8.19 -2.12 3.21 0 0 -51.14 -7.95 12.29 1.92 0 0 -72.20 -16.64 20.97 -4.06 26.61 -1.12 7.04 -5.25 -5.29 -14.17 0 0 47.46 5.10 45.42 -26.12 0 0 0 0 109.24 -27.71 0 0 -26.77 8.51 -6.10 -2.29 -0.46 1.83 -58.05 34.86 97.98 -5.29 0 0 3.13 -12.29 -11.73 -3.01 0 0 49.17 21.55 -13.56 -9.37 0.29 2.59 44.26 -16.28 -19.27 -4.34 0 0 39.43 1.04 -17.18 -2.16 0 0 32.42 -1.98 -6.38 -9.47 0.83 0.29 71.81 -24.27 -17.64 -4.77 0 0 87.27 -15.40 -16.24 -2.87 0 0 44.78 -4.46 -12.79 -8.65 1.01 -1.70 72.40 -20.74 -15.78 -4.54 0 0 80.31 -7.53 -8.92 -2.50 0 0 47.93 -2.94 -7.77 -7.69 0.66 -3.90 85.69 -30.71 -4.49 -3.21 0 0 73.39 -11.48 -8.29 -1.92 0 0 39.93 -4.93 -15.33 8.73 -0 0 11.31 0.95 39.85 0 -46.66 0 0 20.84 0 0 -40.14 0 -11.78 -14.92 13.63 0 -8.88 14.22 0 0 0 -8.73 0 -0 -3.12 -9.72 -11.79 0 -46.66 0 0 18.83 0 0 -40.14 0 1.35 -9.07 -0.20 0 -8.88 14.22 0 0 0 
-0.15 95.11 0.08 -1.73 1.09 -36.34 0 7.23 0 4.88 -1.87 -0.42 0 16.54 -0 -1.07 2.05 -2.68 0 34.21 -0 -0.59 21.20 1.15 0 6.29 0 -3.93 -17.54 44.40 4.06 26.61 -1.12 -6.28 -5.28 6.30 14.17 0 0 -68.23 39.22 -3.32 26.12 0 0 -0 0 -79.28 27.71 0 0 -22.60 -5.72 -10.89 2.29 -0.46 1.83 60.55 59.81 -94.87 5.29 0 0 -31.62 1.78 13.52 3.01 0 0 -9.29 4.86 11.98 9.37 0.29 2.59 -14.84 3.00 -1.79 4.34 0 0 -17.05 2.95 12.80 2.16 0 0 -39.58 -1.85 3.38 9.47 0.83 0.29 -17.69 -18.84 -0.67 4.77 0 0 -25.26 1.27 15.79 2.87 0 0 -42.85 -5.38 11.90 8.65 1.01 -1.70 -25.51 -10.38 2.28 4.54 0 0 -23.47 0.26 7.66 2.50 0 0 -24.24 -1.28 4.61 7.69 0.66 -3.90 -12.73 -8.19 -2.12 3.21 0 0 -51.14 -7.95 12.29 1.92 0 0 -72.20 -16.64 20.97 -4.06 26.61 -1.12 6.91 -5.25 -5.41 -14.17 0 0 47.42 5.30 45.71 -26.12 0 0 0 0 109.26 -27.71 0 0 -26.85 8.42 -6.26 -2.29 -0.46 1.83 -58.05 34.86 97.98 -5.29 0 0 3.13 -12.29 -11.73 -3.01 0 0 49.17 21.55 -13.56 -9.37 0.29 2.59 44.26 -16.28 -19.27 -4.34 0 0 39.43 1.04 -17.18 -2.16 0 0 32.42 -1.98 -6.38 -9.47 0.83 0.29 71.81 -24.27 -17.64 -4.77 0 0 87.27 -15.40 -16.24 -2.87 0 0 44.78 -4.46 -12.79 -8.65 1.01 -1.70 72.40 -20.74 -15.78 -4.54 0 0 80.31 -7.53 -8.92 -2.50 0 0 47.93 -2.94 -7.77 -7.69 0.66 -3.90 85.69 -30.71 -4.49 -3.21 0 0 73.39 -11.48 -8.29 -1.92 0 0 39.93 -4.93 -15.33 8.73 -0 0 11.16 1.10 39.90 0 -46.66 0 0 20.39 0 0 -40.14 0 -11.79 -14.74 13.63 0 -8.88 14.22 0 0 0 -8.73 0 -0 -3.11 -9.59 -11.81 0 -46.66 0 0 18.53 0 0 -40.14 0 1.40 -8.97 -0.18 0 -8.88 14.22 0 0 0 
-0.17 95.13 0.08 -1.69 1.09 -36.33 0 7.23 0 4.88 -1.90 -0.42 0 16.54 -0 -1.05 1.95 -2.72 0 34.21 -0 -0.59 21.24 1.15 0 6.29 0 -4.05 -17.47 44.47 4.06 26.61 -1.12 -6.10 -5.27 6.41 14.17 0 0 -68.03 39.25 -3.67 26.12 0 0 -0 0 -79.29 27.71 0 0 -22.47 -6.06 -10.95 2.29 -0.46 1.83 60.55 59.81 -94.87 5.29 0 0 -31.62 1.78 13.52 3.01 0 0 -9.29 4.86 11.98 9.37 0.29 2.59 -14.84 3.00 -1.79 4.34 0 0 -17.05 2.95 12.80 2.16 0 0 -39.58 -1.85 3.38 9.47 0.83 0.29 -17.69 -18.44 -0.60 4.77 0 0 -25.26 1.27 15.79 2.87 0 0 -42.85 -5.38 11.90 8.65 1.01 -1.70 -25.51 -10.38 2.28 4.54 0 0 -23.47 0.26 7.66 2.50 0 0 -24.24 -1.28 4.61 7.69 0.66 -3.90 -12.73 -8.19 -2.12 3.21 0 0 -51.14 -7.95 12.29 1.92 0 0 -72.20 -16.64 20.97 -4.06 26.61 -1.12 6.79 -5.25 -5.54 -14.17 0 0 47.39 5.51 46.00 -26.12 0 0 0 0 109.29 -27.71 0 0 -26.94 8.32 -6.41 -2.29 -0.46 1.83 -58.05 34.86 97.98 -5.29 0 0 3.13 -12.29 -11.73 -3.01 0 0 49.17 21.55 -13.56 -9.37 0.29 2.59 44.26 -16.28 -19.27 -4.34 0 0 39.43 1.04 -17.18 -2.16 0 0 32.42 -1.98 -6.38 -9.47 0.83 0.29 71.81 -24.27 -17.64 -4.77 0 0 87.27 -15.40 -16.24 -2.87 0 0 44.78 -4.46 -12.79 -8.65 1.01 -1.70 72.40 -20.74 -15.78 -4.54 0 0 80.31 -7.53 -8.92 -2.50 0 0 47.93 -2.94 -7.77 -7.69 0.66 -3.90 85.69 -30.71 -4.49 -3.21 0 0 73.39 -11.48 -8.29 -1.92 0 0 39.93 -4.93 -15.33 8.73 -0 0 11.01 1.24 39.95 0 -46.66 0 0 19.95 0 0 -40.14 0 -11.8 -14.56 13.64 0 -8.88 14.22 0 0 0 -8.73 0 -0 -3.10 -9.46 -11.83 0 -46.66 0 0 18.24 0 0 -40.14 0 1.46 -8.88 -0.16 0 -8.88 14.22 0 0 0 
